<?xml version="1.0" encoding="UTF-8"?>
<svg id="Layer_1" data-name="Layer 1" xmlns="http://www.w3.org/2000/svg" viewBox="0 0 217.8 226.79">
  <defs>
    <style>
      .cls-1 {
        fill: none;
      }

      .cls-2 {
        fill: #c5d82d;
      }

      .cls-3 {
        fill: #07b04c;
      }
    </style>
  </defs>
  <path class="cls-1" d="m159.6,114.41c-11.06-12.76-22.02-27.09-32.57-42.62l-18.19-26.93-22.96,34c6.05,7.13,11.39,13.01,16.31,17.96l17.45,17.58-17.45,17.58c-4.44,4.47-9.14,9.62-14.77,16.16l22.8,33.77,16.77-24.83c10.58-15.56,21.56-29.92,32.62-42.67Z"/>
  <path class="cls-3" d="m31.02,225.62L.58,182.99l18.54-25.35c10.65-15.66,21.7-30.1,32.83-42.91l.29-.33-.29-.33c-11.13-12.81-22.16-27.23-32.79-42.85L.75,43.97,29.66,1.17l-.41-.61.41-.28-.41-.28L0,43.3v1.79l.15-.22,18.19,26.93c10.56,15.53,21.51,29.86,32.57,42.62-11.06,12.76-22.03,27.11-32.6,42.66L0,182.09v1.81l30.62,42.89.41-.29-.41-.28.4-.6Z"/>
  <path class="cls-3" d="m194.98,78.87l22.81-33.78v-1.79l-23.48,34.77c.14.17.28.34.42.51.08.1.16.19.25.29Z"/>
  <path class="cls-3" d="m217.78,182.11l-21.27-33.95c-.08.09-.16.18-.24.28-.15.17-.29.35-.44.52l21.39,34.14.57.8v-1.81.02Z"/>
  <path class="cls-3" d="m160.64,114.74l.29-.33-.29-.33c-11.13-12.81-22.16-27.23-32.79-42.85l-18.41-27.26-.6.89,18.19,26.93c10.56,15.52,21.51,29.86,32.57,42.62-11.06,12.76-22.03,27.11-32.62,42.67l-16.77,24.83.6.89,16.99-25.16c10.65-15.66,21.7-30.1,32.83-42.91Z"/>
  <path class="cls-2" d="m138.34,1.17l29.17,43.18c8.28,12.18,17.18,23.91,26.47,34.87,6.17,7.28,11.6,13.27,16.61,18.31l7.22,7.27v-1.42l-6.51-6.55c-4.92-4.96-10.26-10.84-16.31-17.96l-.21.32-.83-.56.37-.55c-9.11-10.79-17.85-22.31-25.98-34.27l-4.34-6.43-.19.28-.83-.56.41-.61L138.76,0l-.41.28.41.28-.41.61Z"/>
  <polygon class="cls-2" points="0 103.38 0 104.8 9.54 114.41 0 124.02 0 125.44 10.95 114.41 0 103.38"/>
  <path class="cls-2" d="m196.31,147.85l.2.31c5.63-6.55,10.34-11.7,14.78-16.17l6.51-6.55v-1.42l-7.22,7.27c-4.52,4.56-9.31,9.8-15.07,16.5-9.78,11.38-19.22,23.74-28.05,36.73l-27.75,41.09.41.61-.41.28.41.28,24.64-36.48-.41-.61.83-.56.19.28,2.92-4.33c8.68-12.76,17.94-24.91,27.54-36.12l-.36-.58.85-.53Z"/>
  <path class="cls-2" d="m196.51,148.16l-.2-.31-.85.53.36.58c.15-.17.29-.35.44-.52.08-.1.16-.18.24-.28Z"/>
  <path class="cls-2" d="m194.77,79.18l.21-.32c-.08-.1-.16-.19-.25-.29-.14-.17-.28-.34-.42-.51l-.37.55.83.56Z"/>
  <path class="cls-2" d="m87.19,147.83l.21.32c5.63-6.54,10.33-11.69,14.77-16.16l17.45-17.58-17.45-17.58c-4.92-4.95-10.26-10.83-16.31-17.96l-.21.32-.83-.56.37-.55c-9.11-10.79-17.85-22.31-25.98-34.27l-4.34-6.42-.19.28-.83-.56.41-.61L29.64,0l-.62.42.21.14-.21.31,29.37,43.49c8.28,12.18,17.18,23.91,26.47,34.87,6.17,7.28,11.6,13.27,16.61,18.31l16.75,16.87-16.75,16.87c-4.52,4.56-9.31,9.8-15.07,16.5-9.78,11.38-19.22,23.74-28.05,36.73l-27.95,41.39.21.31-.21.14.62.42,24.64-36.48-.41-.61.83-.56.19.28,2.92-4.33c8.68-12.77,17.95-24.92,27.55-36.14l-.37-.55.83-.56Z"/>
  <polygon class="cls-2" points="189.4 226.78 190.23 226.22 165.37 189.41 164.77 190.3 189.4 226.78"/>
  <polygon class="cls-2" points="164.35 189.69 164.77 190.3 165.37 189.41 165.18 189.13 164.35 189.69"/>
  <polygon class="cls-2" points="188.86 .56 188.03 0 163.39 36.48 163.99 37.37 188.86 .56"/>
  <polygon class="cls-2" points="163.81 37.65 163.99 37.37 163.39 36.48 162.98 37.09 163.81 37.65"/>
  <path class="cls-3" d="m85.87,78.87l22.96-34-.41-.61.83-.56.19.28L138.34,1.17l-.41-.61.41-.28-.41-.28-52.73,78.07c.14.17.28.34.42.51.08.1.16.19.25.29Z"/>
  <polygon class="cls-3" points="109.25 43.69 108.42 44.25 108.83 44.86 109.44 43.97 109.25 43.69"/>
  <polygon class="cls-3" points="138.34 1.17 138.76 .56 138.34 .28 137.93 .56 138.34 1.17"/>
  <path class="cls-3" d="m85.66,79.18l.21-.32c-.08-.1-.16-.19-.25-.29-.14-.17-.28-.34-.42-.51l-.37.55.83.56Z"/>
  <polygon class="cls-2" points="79.74 .56 78.91 0 54.28 36.48 54.88 37.37 79.74 .56"/>
  <polygon class="cls-2" points="54.69 37.65 54.88 37.37 54.28 36.48 53.86 37.09 54.69 37.65"/>
  <path class="cls-3" d="m139.72,225.61l-28.9-42.8-.19.28-.83-.56.41-.61-22.8-33.77c-.08.1-.16.19-.25.29-.14.17-.28.34-.42.5l52.57,77.84.41-.28-.41-.28.41-.61Z"/>
  <polygon class="cls-3" points="109.8 182.53 110.62 183.09 110.81 182.81 110.21 181.92 109.8 182.53"/>
  <polygon class="cls-3" points="139.72 225.61 139.3 226.22 139.72 226.5 140.13 226.22 139.72 225.61"/>
  <path class="cls-3" d="m87.41,148.15l-.21-.32-.83.56.37.55c.14-.17.28-.34.42-.5.08-.1.17-.19.25-.29Z"/>
  <polygon class="cls-2" points="80.29 226.78 81.12 226.22 56.26 189.41 55.65 190.3 80.29 226.78"/>
  <polygon class="cls-2" points="55.24 189.69 55.65 190.3 56.26 189.41 56.07 189.13 55.24 189.69"/>
  <polygon class="cls-3" points="29.02 .87 29.23 .56 29.02 .42 28.81 .56 29.02 .87"/>
  <polygon class="cls-3" points="0 43.83 .07 43.73 0 43.78 0 43.83"/>
  <polygon class="cls-3" points="30.4 225.91 30.19 226.22 30.4 226.36 30.61 226.22 30.4 225.91"/>
</svg>